<svg width="1124" height="575" viewBox="0 0 1124 575" fill="none" xmlns="http://www.w3.org/2000/svg">
<path d="M188.877 67.5322C191.811 60.9816 201.413 62.0123 202.89 69.0362L209.043 98.3028C209.703 101.444 212.311 103.803 215.503 104.145L245.239 107.337C252.375 108.103 254.362 117.553 248.139 121.128L222.206 136.025C219.422 137.623 217.985 140.833 218.646 143.974L224.799 173.241C226.276 180.264 217.902 185.075 212.579 180.26L190.398 160.2C188.017 158.047 184.521 157.672 181.737 159.27L155.805 174.167C149.581 177.742 142.418 171.264 145.352 164.713L157.576 137.419C158.888 134.49 158.165 131.049 155.784 128.896L133.604 108.835C128.28 104.021 132.228 95.2072 139.364 95.9732L169.1 99.1647C172.291 99.5073 175.341 97.7558 176.653 94.8263L188.877 67.5322Z" fill="#F292BB"/>
<path d="M83.3612 236.714C86.3884 230.206 95.9748 231.374 97.351 238.418L103.085 267.77C103.701 270.92 106.275 273.316 109.461 273.704L139.148 277.32C146.273 278.188 148.124 287.666 141.85 291.152L115.707 305.676C112.901 307.235 111.418 310.423 112.033 313.573L117.768 342.925C119.144 349.969 110.702 354.659 105.448 349.769L83.5564 329.394C81.2068 327.207 77.7162 326.782 74.9102 328.34L48.7671 342.864C42.4928 346.35 35.4237 339.77 38.4509 333.262L51.0643 306.146C52.4181 303.235 51.7439 299.784 49.3942 297.597L27.5027 277.222C22.2488 272.332 26.3219 263.575 33.4467 264.443L63.1337 268.06C66.3201 268.448 69.394 266.74 70.7478 263.83L83.3612 236.714Z" fill="#F292BB"/>
<path d="M240.693 439.021C241.287 431.869 250.687 429.655 254.411 435.791L269.926 461.358C271.591 464.102 274.834 465.462 277.959 464.726L307.069 457.87C314.055 456.225 319.065 464.481 314.38 469.918L294.859 492.575C292.764 495.007 292.473 498.511 294.138 501.255L309.654 526.822C313.378 532.958 307.074 540.275 300.455 537.499L272.875 525.935C269.914 524.694 266.492 525.5 264.396 527.932L244.875 550.588C240.19 556.026 231.284 552.292 231.878 545.139L234.354 515.335C234.62 512.136 232.795 509.13 229.835 507.889L202.255 496.324C195.636 493.549 196.435 483.925 203.421 482.28L232.532 475.424C235.656 474.688 237.951 472.024 238.217 468.825L240.693 439.021Z" fill="#F292BB"/>
<path d="M865.492 21.6872C867.71 14.861 877.367 14.861 879.585 21.6873L888.827 50.1301C889.819 53.1828 892.664 55.2497 895.874 55.2497H925.78C932.958 55.2497 935.942 64.4343 930.135 68.6532L905.94 86.2318C903.344 88.1185 902.257 91.4628 903.249 94.5156L912.49 122.958C914.708 129.785 906.896 135.461 901.089 131.242L876.894 113.664C874.297 111.777 870.781 111.777 868.184 113.664L843.989 131.242C838.182 135.461 830.369 129.785 832.587 122.958L841.829 94.5156C842.821 91.4628 841.734 88.1185 839.137 86.2318L814.942 68.6532C809.136 64.4343 812.12 55.2497 819.297 55.2497H849.204C852.414 55.2497 855.259 53.1828 856.251 50.13L865.492 21.6872Z" fill="#F292BB"/>
<path d="M997.692 147.296C996.99 140.153 1005.84 136.285 1010.61 141.651L1030.47 164.012C1032.6 166.412 1036.03 167.167 1038.97 165.881L1066.38 153.903C1072.95 151.029 1079.37 158.25 1075.73 164.441L1060.6 190.238C1058.98 193.007 1059.32 196.507 1061.46 198.907L1081.32 221.267C1086.08 226.634 1081.2 234.964 1074.19 233.424L1044.98 227.007C1041.84 226.318 1038.62 227.726 1036.99 230.495L1021.87 256.293C1018.23 262.484 1008.8 260.412 1008.1 253.269L1005.18 223.505C1004.86 220.311 1002.53 217.682 999.393 216.993L970.183 210.576C963.173 209.036 962.229 199.425 968.806 196.55L996.209 184.572C999.15 183.287 1000.93 180.254 1000.62 177.059L997.692 147.296Z" fill="#F292BB"/>
<path d="M946.763 396.854C951.033 391.085 960.191 394.151 960.127 401.328L959.861 431.234C959.832 434.443 961.874 437.306 964.918 438.326L993.277 447.82C1000.08 450.099 999.997 459.755 993.152 461.913L964.628 470.901C961.566 471.865 959.474 474.692 959.446 477.901L959.179 507.807C959.116 514.984 949.905 517.886 945.738 512.042L928.375 487.692C926.512 485.078 923.177 483.962 920.116 484.927L891.592 493.915C884.746 496.072 879.139 488.209 883.41 482.44L901.203 458.403C903.113 455.823 903.144 452.306 901.28 449.693L883.918 425.342C879.751 419.498 885.497 411.736 892.303 414.015L920.662 423.509C923.706 424.528 927.06 423.472 928.97 420.892L946.763 396.854Z" fill="#F292BB"/>
</svg>
