<svg width="122" height="117" viewBox="0 0 122 117" fill="none" xmlns="http://www.w3.org/2000/svg">
<path d="M53.6182 5.11965C55.8362 -1.70656 65.4935 -1.70655 67.7114 5.11967L76.9531 33.5625C77.945 36.6152 80.7898 38.6821 83.9997 38.6821H113.906C121.084 38.6821 124.068 47.8668 118.261 52.0856L94.0664 69.6642C91.4695 71.5509 90.3829 74.8952 91.3748 77.948L100.616 106.391C102.834 113.217 95.0215 118.893 89.2148 114.675L65.0199 97.096C62.423 95.2092 58.9066 95.2092 56.3098 97.096L32.1149 114.675C26.3081 118.893 18.4953 113.217 20.7132 106.391L29.9549 77.948C30.9468 74.8952 29.8601 71.5509 27.2633 69.6642L3.06838 52.0856C-2.73835 47.8667 0.245929 38.6821 7.42344 38.6821H37.33C40.5399 38.6821 43.3847 36.6152 44.3766 33.5625L53.6182 5.11965Z" fill="#F292BB"/>
</svg>
